<svg width="138" height="48" viewBox="0 0 138 48" fill="none" xmlns="http://www.w3.org/2000/svg">
<g clip-path="url(#clip0_318_684)">
<path d="M9.00966 36.438C11.6613 36.438 13.9213 35.3534 15.2772 33.6661L13.7103 32.039C12.5652 33.1237 11.0586 33.6661 9.37124 33.6661C6.68946 33.6661 4.55006 32.2801 4.03781 29.5683H16.3319C17.0852 22.9999 12.746 20.1676 8.76859 20.1676C4.79113 20.1676 0.904053 23.03 0.904053 28.3028C0.904053 33.5154 4.761 36.438 9.00966 36.438ZM4.00768 27.0976C4.4898 24.3257 6.59906 22.9999 8.79873 22.9999C11.0285 22.9999 13.198 24.3859 13.3788 27.0976H4.00768ZM62.4331 36.3175C63.2768 36.3175 64.3013 36.1668 64.8738 35.6848V33.0634C64.3013 33.2743 63.789 33.3346 63.4275 33.3346C62.192 33.3346 61.7099 32.6417 61.7099 31.7377V23.1505H64.8738V20.469H61.7099V16.4616H58.3653V20.469H56.1957V23.1505H58.3653V32.3403C58.3653 35.1424 60.0527 36.3175 62.4331 36.3175ZM67.5719 36.1367H70.8864V27.4592C70.8864 24.7173 72.4834 23.1807 74.7434 23.1807C77.0635 23.1807 78.5701 24.7173 78.5701 27.4592V36.1367H81.9148V26.9168C81.9148 22.1864 79.1427 20.1676 75.9185 20.1676C73.3874 20.1676 71.7301 21.3728 70.8864 22.8192V14.7441H67.5719V36.1367ZM92.8208 42.4039C96.4067 42.4039 100.896 40.8673 100.896 35.0822V20.469H97.582V22.9697H97.4014C96.8587 21.7344 94.9001 20.1676 92.0675 20.1676C88.3914 20.1676 84.4742 22.9095 84.4742 28.3028C84.4742 33.6962 88.3914 36.438 92.0675 36.438C94.9001 36.438 96.8587 34.8712 97.4014 33.6359H97.582V35.263C97.582 38.2157 95.2917 39.6017 92.2483 39.6017C90.5007 39.6017 88.9639 39.1197 88.2407 38.6376V41.3794C89.0844 41.9519 90.8622 42.4039 92.8208 42.4039ZM87.7586 28.3028C87.7586 24.9282 90.1993 23.1807 92.7003 23.1807C95.2315 23.1807 97.6723 24.9282 97.6723 28.3028C97.6723 31.6774 95.2315 33.425 92.7003 33.425C90.1993 33.425 87.7586 31.6774 87.7586 28.3028ZM111.56 36.438C114.211 36.438 116.471 35.3534 117.827 33.6661L116.26 32.039C115.115 33.1237 113.608 33.6661 111.922 33.6661C109.24 33.6661 107.1 32.2801 106.588 29.5683H118.882C119.635 22.9999 115.296 20.1676 111.319 20.1676C107.342 20.1676 103.454 23.03 103.454 28.3028C103.454 33.5154 107.311 36.438 111.56 36.438ZM106.558 27.0976C107.04 24.3257 109.15 22.9999 111.349 22.9999C113.578 22.9999 115.748 24.3859 115.929 27.0976H106.558ZM121.54 36.1367H124.854V27.4592C124.854 24.7173 126.451 23.1807 128.711 23.1807C131.031 23.1807 132.538 24.7173 132.538 27.4592V36.1367H135.882V26.9168C135.882 22.1864 133.11 20.1676 129.886 20.1676C127.355 20.1676 125.697 21.3728 124.854 22.8192V20.469H121.54V36.1367Z" fill="black"/>
<path d="M36.1895 36.186C36.1895 37.6305 36.9616 38.672 38.7888 39.6916C41.2129 41.0442 50.1288 43.8714 53.3489 44.8948C55.2416 45.4962 56.6988 43.7655 54.4941 41.2539C52.6568 39.1614 44.5563 30.2265 40.4072 25.7904C38.3392 23.5792 36.1895 21.7515 36.1895 17.9783V36.186Z" fill="url(#paint0_linear_318_684)"/>
<path d="M60.1561 1.10107C54.5207 3.90929 44.5633 9.65988 40.2652 12.0709C37.2388 13.7686 36.1897 16.0684 36.1897 17.9774V36.1851C36.6246 32.7202 39.2787 30.2782 41.425 27.8117C47.0019 21.4027 59.5092 7.44866 62.0748 4.55486C64.5577 1.7542 64.5838 0.21177 63.0158 0.211914C62.3375 0.211988 61.3608 0.500713 60.1561 1.10107Z" fill="url(#paint1_linear_318_684)"/>
<path d="M7.83737 4.55486C10.4029 7.44866 22.9101 21.4027 28.4871 27.8117C30.6334 30.2782 33.2874 32.7202 33.7223 36.1851V17.9774C33.7223 16.0684 32.6734 13.7686 29.6469 12.0709C25.3487 9.65988 15.3914 3.90929 9.75596 1.10107C8.55127 0.500713 7.57458 0.211988 6.89638 0.211914C5.3284 0.211914 5.35436 1.7542 7.83737 4.55486Z" fill="url(#paint2_linear_318_684)"/>
<path d="M29.5046 25.7904C25.3556 30.2265 17.255 39.1614 15.4179 41.2539C13.213 43.7655 14.6702 45.4962 16.5629 44.8948C19.7832 43.8714 28.6988 41.0442 31.1229 39.6916C32.9503 38.672 33.7223 37.6305 33.7223 36.186V17.9783C33.7223 21.7515 31.5726 23.5792 29.5046 25.7904Z" fill="url(#paint3_linear_318_684)"/>
<path d="M34.9766 30.0891C36.8548 30.0891 38.3774 28.5666 38.3774 26.6885C38.3774 24.8104 36.8548 23.2878 34.9766 23.2878C33.0983 23.2878 31.5757 24.8104 31.5757 26.6885C31.5757 28.5666 33.0983 30.0891 34.9766 30.0891Z" fill="#C9C9C9"/>
</g>
<defs>
<linearGradient id="paint0_linear_318_684" x1="36.1895" y1="36.7686" x2="56.1244" y2="35.4971" gradientUnits="userSpaceOnUse">
<stop stop-color="#FACEB8"/>
<stop offset="0.328125" stop-color="#E6AFCC"/>
<stop offset="0.65625" stop-color="#C8BEE5"/>
<stop offset="1" stop-color="#ACD1F1"/>
</linearGradient>
<linearGradient id="paint1_linear_318_684" x1="36.1897" y1="36.1851" x2="69.8619" y2="29.558" gradientUnits="userSpaceOnUse">
<stop stop-color="#FD169C"/>
<stop offset="0.479167" stop-color="#FE497A"/>
<stop offset="1" stop-color="#FE7B59"/>
</linearGradient>
<linearGradient id="paint2_linear_318_684" x1="5.82593" y1="25.2133" x2="34.4538" y2="23.2413" gradientUnits="userSpaceOnUse">
<stop stop-color="#FACEB8"/>
<stop offset="0.328125" stop-color="#E6AFCC"/>
<stop offset="0.65625" stop-color="#C8BEE5"/>
<stop offset="1" stop-color="#ACD1F1"/>
</linearGradient>
<linearGradient id="paint3_linear_318_684" x1="14.3098" y1="45.0146" x2="37.8668" y2="40.7219" gradientUnits="userSpaceOnUse">
<stop stop-color="#FE7B59"/>
<stop offset="0.479167" stop-color="#FE497A"/>
<stop offset="1" stop-color="#FD169C"/>
</linearGradient>
<clipPath id="clip0_318_684">
<rect width="137.882" height="47.576" fill="white" transform="translate(0 0.211914)"/>
</clipPath>
</defs>
</svg>
