<svg width="129" height="54" viewBox="0 0 129 54" fill="none" xmlns="http://www.w3.org/2000/svg">
<path d="M36.2321 34.7268C36.374 36.4205 35.8008 38.1634 34.5105 39.4651C33.2203 40.7668 31.4825 41.3553 29.7876 41.2284C29.6458 39.5347 30.2189 37.7918 31.5092 36.4901C32.7995 35.1884 34.5373 34.5999 36.2321 34.7268Z" fill="black"/>
<path d="M33.1621 32.3732C31.4706 34.1821 29.027 35.2665 26.3592 35.1446C23.6916 35.0228 21.3573 33.7204 19.8377 31.7653C21.5292 29.9564 23.9728 28.872 26.6406 28.9938C29.3082 29.1157 31.6426 30.418 33.1621 32.3732Z" fill="black"/>
<path d="M18.8434 26.5518C19.1967 22.3162 21.3337 18.256 25.056 15.5815C28.7782 12.9072 33.3078 12.1773 37.4346 13.1937C37.0813 17.4293 34.9443 21.4895 31.222 24.1639C27.4999 26.8383 22.9702 27.5682 18.8434 26.5518Z" fill="black"/>
<path d="M87.4575 21.3577V23.9369H89.0051V37.4212H91.7562V23.9369H95.3672V21.3577H91.7562V18.7184C91.7562 17.9618 91.825 17.3543 91.9626 16.8957C92.1002 16.4372 92.2835 16.1162 92.5129 15.9327C92.765 15.7265 93.0631 15.6233 93.407 15.6233C93.6821 15.6233 93.9687 15.6806 94.2667 15.7952C94.5877 15.8869 94.8628 16.1276 95.0921 16.5174L96.6052 14.2477C96.4447 14.0184 96.2155 13.8006 95.9175 13.5943C95.6424 13.3879 95.3099 13.2159 94.9201 13.0784C94.5304 12.9408 94.0833 12.8721 93.5789 12.8721C92.616 12.8721 91.7906 13.0784 91.1028 13.491C90.4379 13.8808 89.9221 14.4769 89.5552 15.2794C89.1885 16.0818 89.0051 17.1135 89.0051 18.3744V21.3577H87.4575Z" fill="#6F6767"/>
<path d="M44.2535 16.0993L44.2535 37.4212H56.634V34.67H47.1767V16.0993H44.2535Z" fill="#6F6767"/>
<path fill-rule="evenodd" clip-rule="evenodd" d="M63.9658 37.7651C65.6623 37.7651 67.1297 37.4326 68.3678 36.7677C69.6287 36.08 70.6719 35.0711 71.4973 33.7414L69.2619 32.3314C68.6887 33.2943 67.9895 34.0166 67.1641 34.498C66.3387 34.9565 65.3872 35.1858 64.3097 35.1858C63.2321 35.1858 62.315 34.9565 61.5585 34.498C60.8019 34.0395 60.2287 33.3746 59.839 32.5034C59.5428 31.8413 59.3591 31.0733 59.2881 30.1992H71.738V29.8897C71.7609 29.7063 71.7724 29.5343 71.7724 29.3739C71.7724 27.7002 71.4743 26.2559 70.8782 25.0407C70.2821 23.8256 69.4223 22.8971 68.2989 22.2551C67.1984 21.5903 65.8687 21.2578 64.3097 21.2578C62.7507 21.2578 61.3751 21.6017 60.1829 22.2895C59.0136 22.9773 58.0965 23.9402 57.4316 25.1783C56.7897 26.4163 56.4688 27.8607 56.4688 29.5114C56.4688 31.1393 56.7782 32.5721 57.3973 33.8102C58.0392 35.0482 58.9219 36.0227 60.0453 36.7334C61.1916 37.4212 62.4985 37.7651 63.9658 37.7651ZM59.8733 26.2788C59.6536 26.7441 59.4922 27.2715 59.3891 27.8607H68.7651C68.7122 27.1073 68.5224 26.4425 68.1958 25.8661C67.8289 25.1783 67.3131 24.6395 66.6482 24.2498C65.9834 23.86 65.2038 23.6651 64.3097 23.6651C63.2551 23.6651 62.3494 23.8944 61.5929 24.3529C60.8592 24.7885 60.286 25.4305 59.8733 26.2788Z" fill="#6F6767"/>
<path fill-rule="evenodd" clip-rule="evenodd" d="M82.9714 28.7478C82.5391 28.4642 81.9888 28.2144 81.3207 27.9983C80.5641 27.7231 79.6127 27.5856 78.4663 27.5856C76.5175 27.5856 74.9929 28.0556 73.8924 28.9956C72.8148 29.9126 72.2761 31.1393 72.2761 32.6754C72.2761 33.7528 72.5283 34.67 73.0326 35.4265C73.5371 36.1831 74.202 36.7677 75.0273 37.1804C75.8756 37.5702 76.7812 37.7651 77.7442 37.7651C78.6154 37.7651 79.4866 37.6046 80.3577 37.2837C81.2519 36.9626 81.9971 36.4697 82.5932 35.8049C82.7357 35.6518 82.8617 35.4896 82.9714 35.3183V37.4212H85.7227V26.0724C85.7227 25.0407 85.4589 24.1695 84.9317 23.4588C84.4273 22.7481 83.7051 22.2092 82.7651 21.8425C81.848 21.4527 80.7704 21.2578 79.5324 21.2578C78.0651 21.2578 76.8041 21.4756 75.7495 21.9112C74.7178 22.3468 73.9039 22.7824 73.3078 23.218L74.649 25.247C74.9012 25.0636 75.2451 24.8458 75.6807 24.5936C76.1163 24.3414 76.6437 24.1236 77.2626 23.9402C77.9046 23.7568 78.6154 23.6651 79.3949 23.6651C79.8763 23.6651 80.3348 23.7109 80.7704 23.8027C81.206 23.8944 81.5844 24.0434 81.9053 24.2498C82.2492 24.4561 82.5129 24.7427 82.6963 25.1095C82.8797 25.4534 82.9714 25.9005 82.9714 26.4508V28.7478ZM75.4743 31.059C75.1992 31.4717 75.0617 31.9646 75.0617 32.5378C75.0617 33.1339 75.1992 33.6497 75.4743 34.0853C75.7725 34.5209 76.1737 34.8533 76.6781 35.0826C77.2053 35.2889 77.8015 35.3922 78.4663 35.3922C79.3146 35.3922 80.0712 35.2202 80.7361 34.8763C81.4239 34.5324 81.9627 34.0509 82.3524 33.4319C82.7651 32.7899 82.9714 32.0563 82.9714 31.2309V30.636C82.5309 30.4216 82.0839 30.253 81.6302 30.1304C80.7819 29.8783 79.8763 29.7521 78.9134 29.7521C78.0193 29.7521 77.2856 29.8668 76.7124 30.0961C76.1622 30.3253 75.7495 30.6463 75.4743 31.059Z" fill="#6F6767"/>
<path fill-rule="evenodd" clip-rule="evenodd" d="M107.305 36.7677C106.067 37.4326 104.6 37.7651 102.903 37.7651C101.436 37.7651 100.129 37.4212 98.9827 36.7334C97.8593 36.0227 96.9766 35.0482 96.3347 33.8102C95.7156 32.5721 95.4062 31.1393 95.4062 29.5114C95.4062 27.8607 95.7271 26.4163 96.369 25.1783C97.0339 23.9402 97.951 22.9773 99.1203 22.2895C100.312 21.6017 101.688 21.2578 103.247 21.2578C104.806 21.2578 106.136 21.5903 107.236 22.2551C108.36 22.8971 109.22 23.8256 109.816 25.0407C110.412 26.2559 110.71 27.7002 110.71 29.3739C110.71 29.5343 110.698 29.7063 110.675 29.8897V30.1992H98.2255C98.2965 31.0733 98.4802 31.8413 98.7764 32.5034C99.1662 33.3746 99.7393 34.0395 100.496 34.498C101.252 34.9565 102.17 35.1858 103.247 35.1858C104.325 35.1858 105.276 34.9565 106.102 34.498C106.927 34.0166 107.626 33.2943 108.199 32.3314L110.435 33.7414C109.609 35.0711 108.566 36.08 107.305 36.7677ZM98.3265 27.8607C98.4296 27.2715 98.5911 26.7441 98.8108 26.2788C99.2234 25.4305 99.7967 24.7885 100.53 24.3529C101.287 23.8944 102.192 23.6651 103.247 23.6651C104.141 23.6651 104.921 23.86 105.586 24.2498C106.25 24.6395 106.766 25.1783 107.133 25.8661C107.46 26.4425 107.65 27.1073 107.702 27.8607H98.3265Z" fill="#6F6767"/>
</svg>
