<svg width="194" height="76" viewBox="0 0 194 76" fill="none" xmlns="http://www.w3.org/2000/svg">
<path d="M27.4505 26.9999C29.4418 25.0987 32.1457 23.989 34.8863 23.851C35.8242 23.851 36.7649 23.8566 37.7029 23.8481C37.655 24.8537 37.7029 25.862 37.6747 26.8675C37.5423 29.1152 36.7114 31.3121 35.3116 33.0753C33.4921 35.4468 30.7093 37.0382 27.7547 37.4494C26.4647 37.6579 25.155 37.5255 23.8565 37.5621C23.8791 36.4552 23.8086 35.3454 23.896 34.2413C24.1495 31.5036 25.4423 28.8814 27.4505 26.9999Z" fill="#6F6767"/>
<path d="M38.5715 23.8481C39.5771 23.8594 40.5826 23.8425 41.5909 23.8538C44.1005 24.0312 46.5763 24.9945 48.4662 26.6647C50.5505 28.4533 51.9785 31.0107 52.3446 33.7428C52.5052 35.0103 52.4038 36.2918 52.4657 37.5649C51.587 37.5621 50.711 37.5593 49.8322 37.5649C47.6719 37.5058 45.5482 36.8073 43.74 35.6299C42.9063 35.0328 42.05 34.4272 41.4247 33.5992C40.0531 32.0669 39.1208 30.1432 38.7687 28.1153C38.5039 26.707 38.611 25.2705 38.5715 23.8481Z" fill="#6F6767"/>
<path d="M23.8586 38.3704C24.7514 38.4211 25.6471 38.3281 26.5371 38.4267C30.348 38.5084 34.0461 40.649 36.0206 43.9078C37.1528 45.7329 37.7612 47.8961 37.6824 50.0451C37.6795 50.7493 37.6908 51.4506 37.6711 52.1519C36.2572 52.1097 34.8292 52.2251 33.4293 51.9519C30.3198 51.4281 27.461 49.5776 25.74 46.9356C24.436 45.0147 23.7853 42.6685 23.8529 40.3504C23.8529 39.6885 23.8529 39.0294 23.8586 38.3704Z" fill="#6F6767"/>
<path d="M47.7068 38.6687C49.2391 38.3279 50.8192 38.3842 52.3767 38.3842L52.4443 38.4518C52.4105 39.9249 52.526 41.4149 52.2303 42.871C51.6078 46.1383 49.4447 49.0563 46.5351 50.6589C44.7241 51.6672 42.6454 52.163 40.5752 52.1404C39.9133 52.1432 39.2486 52.1292 38.5867 52.1489C38.5867 50.9293 38.536 49.7041 38.674 48.4901C38.9951 45.5524 40.5837 42.8175 42.8679 40.9698C44.2819 39.8545 45.9437 39.0461 47.7068 38.6687Z" fill="#6F6767"/>
<path d="M64.0071 46.6966C64.0071 47.1925 63.8354 47.612 63.4922 47.9553C63.1679 48.2795 62.7579 48.4416 62.262 48.4416C61.7853 48.4416 61.3848 48.2795 61.0605 47.9553C60.7363 47.612 60.5742 47.1925 60.5742 46.6966V29.0174C60.5742 28.5215 60.7363 28.1115 61.0605 27.7873C61.4038 27.444 61.8234 27.2723 62.3193 27.2723C62.8151 27.2723 63.2156 27.444 63.5208 27.7873C63.845 28.1115 64.0071 28.5215 64.0071 29.0174V46.6966Z" fill="#6F6767"/>
<path d="M77.7857 33.1368C78.2815 33.1368 78.6916 33.3085 79.0158 33.6517C79.34 33.976 79.5021 34.386 79.5021 34.8818V42.1481C79.5021 44.1696 78.9395 45.7716 77.8143 46.9541C76.6891 48.1365 75.068 48.7277 72.9511 48.7277C70.8341 48.7277 69.2131 48.1365 68.0878 46.9541C66.9817 45.7716 66.4286 44.1696 66.4286 42.1481V34.8818C66.4286 34.386 66.5907 33.976 66.915 33.6517C67.2392 33.3085 67.6492 33.1368 68.1451 33.1368C68.6409 33.1368 69.051 33.3085 69.3752 33.6517C69.6994 33.976 69.8615 34.386 69.8615 34.8818V42.1481C69.8615 43.3114 70.119 44.1792 70.6339 44.7513C71.1488 45.3044 71.9212 45.5809 72.9511 45.5809C74 45.5809 74.7819 45.3044 75.2969 44.7513C75.8118 44.1792 76.0692 43.3114 76.0692 42.1481V34.8818C76.0692 34.386 76.2314 33.976 76.5556 33.6517C76.8798 33.3085 77.2898 33.1368 77.7857 33.1368Z" fill="#6F6767"/>
<path d="M89.8268 32.8507C91.3526 32.8507 92.4778 33.2226 93.2025 33.9664C93.9272 34.6911 94.404 35.6352 94.6328 36.7985L94.1465 36.5411L94.3754 36.0833C94.6042 35.6447 94.9571 35.1775 95.4338 34.6816C95.9106 34.1667 96.4828 33.7376 97.1503 33.3943C97.8368 33.0319 98.5997 32.8507 99.4389 32.8507C100.812 32.8507 101.851 33.1463 102.557 33.7376C103.282 34.3288 103.778 35.1202 104.045 36.112C104.312 37.0846 104.445 38.1717 104.445 39.3732V46.6966C104.445 47.1925 104.283 47.612 103.959 47.9553C103.635 48.2795 103.225 48.4416 102.729 48.4416C102.233 48.4416 101.823 48.2795 101.499 47.9553C101.174 47.612 101.012 47.1925 101.012 46.6966V39.3732C101.012 38.7438 100.936 38.1812 100.783 37.6854C100.631 37.1704 100.354 36.7604 99.9538 36.4552C99.5533 36.1501 98.9811 35.9975 98.2374 35.9975C97.5126 35.9975 96.8928 36.1501 96.3779 36.4552C95.863 36.7604 95.472 37.1704 95.205 37.6854C94.9571 38.1812 94.8331 38.7438 94.8331 39.3732V46.6966C94.8331 47.1925 94.671 47.612 94.3468 47.9553C94.0226 48.2795 93.6125 48.4416 93.1167 48.4416C92.6208 48.4416 92.2108 48.2795 91.8866 47.9553C91.5623 47.612 91.4002 47.1925 91.4002 46.6966V39.3732C91.4002 38.7438 91.3239 38.1812 91.1714 37.6854C91.0188 37.1704 90.7423 36.7604 90.3418 36.4552C89.9413 36.1501 89.3691 35.9975 88.6253 35.9975C87.9006 35.9975 87.2808 36.1501 86.7659 36.4552C86.2509 36.7604 85.86 37.1704 85.593 37.6854C85.3451 38.1812 85.2211 38.7438 85.2211 39.3732V46.6966C85.2211 47.1925 85.059 47.612 84.7348 47.9553C84.4105 48.2795 84.0005 48.4416 83.5047 48.4416C83.0088 48.4416 82.5988 48.2795 82.2745 47.9553C81.9503 47.612 81.7882 47.1925 81.7882 46.6966V34.8818C81.7882 34.386 81.9503 33.976 82.2745 33.6517C82.5988 33.3085 83.0088 33.1368 83.5047 33.1368C84.0005 33.1368 84.4105 33.3085 84.7348 33.6517C85.059 33.976 85.2211 34.386 85.2211 34.8818V36.112L84.792 36.0261C84.9636 35.7019 85.202 35.3586 85.5072 34.9963C85.8123 34.6148 86.1842 34.262 86.6228 33.9378C87.0615 33.6136 87.5478 33.3561 88.0818 33.1654C88.6158 32.9556 89.1975 32.8507 89.8268 32.8507Z" fill="#6F6767"/>
<path d="M109.963 46.6966C109.963 47.1925 109.801 47.612 109.476 47.9553C109.152 48.2795 108.742 48.4416 108.246 48.4416C107.75 48.4416 107.34 48.2795 107.016 47.9553C106.692 47.612 106.53 47.1925 106.53 46.6966V34.8818C106.53 34.386 106.692 33.976 107.016 33.6517C107.34 33.3085 107.75 33.1368 108.246 33.1368C108.742 33.1368 109.152 33.3085 109.476 33.6517C109.801 33.976 109.963 34.386 109.963 34.8818V46.6966ZM108.218 31.2773C107.569 31.2773 107.112 31.1724 106.845 30.9627C106.578 30.7529 106.444 30.381 106.444 29.847V29.3034C106.444 28.7504 106.587 28.3785 106.873 28.1878C107.178 27.978 107.636 27.8731 108.246 27.8731C108.914 27.8731 109.381 27.978 109.648 28.1878C109.915 28.3976 110.049 28.7694 110.049 29.3034V29.847C110.049 30.4001 109.906 30.7815 109.619 30.9913C109.333 31.182 108.866 31.2773 108.218 31.2773Z" fill="#6F6767"/>
<path d="M120.242 32.8507C121.653 32.8507 122.721 33.1463 123.446 33.7376C124.19 34.3288 124.695 35.1202 124.962 36.112C125.248 37.0846 125.391 38.1717 125.391 39.3732V46.6966C125.391 47.1925 125.229 47.612 124.905 47.9553C124.581 48.2795 124.171 48.4416 123.675 48.4416C123.179 48.4416 122.769 48.2795 122.445 47.9553C122.121 47.612 121.959 47.1925 121.959 46.6966V39.3732C121.959 38.7438 121.873 38.1812 121.701 37.6854C121.548 37.1704 121.262 36.7604 120.843 36.4552C120.423 36.1501 119.823 35.9975 119.041 35.9975C118.278 35.9975 117.629 36.1501 117.095 36.4552C116.58 36.7604 116.18 37.1704 115.894 37.6854C115.627 38.1812 115.493 38.7438 115.493 39.3732V46.6966C115.493 47.1925 115.331 47.612 115.007 47.9553C114.683 48.2795 114.273 48.4416 113.777 48.4416C113.281 48.4416 112.871 48.2795 112.547 47.9553C112.223 47.612 112.06 47.1925 112.06 46.6966V34.8818C112.06 34.386 112.223 33.976 112.547 33.6517C112.871 33.3085 113.281 33.1368 113.777 33.1368C114.273 33.1368 114.683 33.3085 115.007 33.6517C115.331 33.976 115.493 34.386 115.493 34.8818V36.112L115.064 36.0261C115.236 35.7019 115.484 35.3586 115.808 34.9963C116.132 34.6148 116.514 34.262 116.952 33.9378C117.391 33.6136 117.887 33.3561 118.44 33.1654C118.993 32.9556 119.594 32.8507 120.242 32.8507Z" fill="#6F6767"/>
<path d="M142.376 40.8035C142.376 42.3674 142.023 43.7501 141.317 44.9516C140.631 46.134 139.696 47.059 138.514 47.7265C137.35 48.394 136.044 48.7277 134.594 48.7277C133.145 48.7277 131.829 48.394 130.647 47.7265C129.483 47.059 128.549 46.134 127.843 44.9516C127.157 43.7501 126.813 42.3674 126.813 40.8035C126.813 39.2397 127.157 37.8665 127.843 36.6841C128.549 35.4826 129.483 34.5481 130.647 33.8806C131.829 33.194 133.145 32.8507 134.594 32.8507C136.044 32.8507 137.35 33.194 138.514 33.8806C139.696 34.5481 140.631 35.4826 141.317 36.6841C142.023 37.8665 142.376 39.2397 142.376 40.8035ZM138.943 40.8035C138.943 39.8309 138.742 38.9917 138.342 38.2861C137.961 37.5614 137.436 36.9988 136.769 36.5983C136.12 36.1978 135.395 35.9975 134.594 35.9975C133.793 35.9975 133.059 36.1978 132.392 36.5983C131.743 36.9988 131.219 37.5614 130.818 38.2861C130.437 38.9917 130.246 39.8309 130.246 40.8035C130.246 41.7571 130.437 42.5962 130.818 43.321C131.219 44.0266 131.743 44.5797 132.392 44.9802C133.059 45.3807 133.793 45.5809 134.594 45.5809C135.395 45.5809 136.12 45.3807 136.769 44.9802C137.436 44.5797 137.961 44.0266 138.342 43.321C138.742 42.5962 138.943 41.7571 138.943 40.8035Z" fill="#6F6767"/>
<path d="M155.17 33.1368C155.666 33.1368 156.076 33.3085 156.4 33.6517C156.725 33.976 156.887 34.386 156.887 34.8818V42.1481C156.887 44.1696 156.324 45.7716 155.199 46.9541C154.074 48.1365 152.453 48.7277 150.336 48.7277C148.219 48.7277 146.598 48.1365 145.472 46.9541C144.366 45.7716 143.813 44.1696 143.813 42.1481V34.8818C143.813 34.386 143.975 33.976 144.3 33.6517C144.624 33.3085 145.034 33.1368 145.53 33.1368C146.026 33.1368 146.436 33.3085 146.76 33.6517C147.084 33.976 147.246 34.386 147.246 34.8818V42.1481C147.246 43.3114 147.504 44.1792 148.019 44.7513C148.533 45.3044 149.306 45.5809 150.336 45.5809C151.385 45.5809 152.167 45.3044 152.681 44.7513C153.196 44.1792 153.454 43.3114 153.454 42.1481V34.8818C153.454 34.386 153.616 33.976 153.94 33.6517C154.264 33.3085 154.674 33.1368 155.17 33.1368Z" fill="#6F6767"/>
<path d="M158.286 46.0673C158.095 45.8003 158.01 45.457 158.029 45.0374C158.048 44.6178 158.296 44.2555 158.772 43.9503C159.078 43.7596 159.402 43.6833 159.745 43.7215C160.088 43.7405 160.422 43.9122 160.746 44.2364C161.299 44.7895 161.881 45.2186 162.491 45.5237C163.102 45.8289 163.864 45.9814 164.78 45.9814C165.066 45.9624 165.381 45.9242 165.724 45.867C166.067 45.7907 166.363 45.6381 166.611 45.4093C166.878 45.1614 167.011 44.7895 167.011 44.2936C167.011 43.874 166.868 43.5403 166.582 43.2924C166.296 43.0444 165.915 42.8346 165.438 42.663C164.98 42.4914 164.465 42.3292 163.893 42.1767C163.302 42.005 162.692 41.8143 162.062 41.6045C161.452 41.3947 160.889 41.1277 160.374 40.8035C159.859 40.4602 159.44 40.0121 159.116 39.459C158.791 38.9059 158.629 38.2098 158.629 37.3707C158.629 36.4171 158.896 35.6066 159.43 34.9391C159.964 34.2716 160.651 33.7566 161.49 33.3943C162.348 33.0319 163.245 32.8507 164.179 32.8507C164.77 32.8507 165.39 32.927 166.039 33.0796C166.687 33.2131 167.307 33.442 167.898 33.7662C168.489 34.0713 168.985 34.4813 169.386 34.9963C169.595 35.2823 169.719 35.6256 169.758 36.0261C169.796 36.4266 169.614 36.789 169.214 37.1132C168.928 37.3421 168.594 37.447 168.213 37.4279C167.831 37.3897 167.517 37.2562 167.269 37.0274C166.944 36.6078 166.506 36.2741 165.953 36.0261C165.419 35.7782 164.799 35.6542 164.093 35.6542C163.807 35.6542 163.493 35.6924 163.149 35.7687C162.825 35.8259 162.539 35.9689 162.291 36.1978C162.043 36.4076 161.919 36.7508 161.919 37.2276C161.919 37.6663 162.062 38.0191 162.348 38.2861C162.634 38.534 163.016 38.7438 163.493 38.9155C163.988 39.068 164.513 39.2206 165.066 39.3732C165.638 39.5257 166.22 39.7069 166.811 39.9167C167.402 40.1265 167.946 40.403 168.442 40.7463C168.937 41.0896 169.338 41.5378 169.643 42.0909C169.948 42.6249 170.101 43.3114 170.101 44.1506C170.101 45.1232 169.815 45.9528 169.243 46.6394C168.67 47.326 167.955 47.8504 167.097 48.2128C166.239 48.5561 165.362 48.7277 164.465 48.7277C163.34 48.7277 162.215 48.537 161.09 48.1556C159.964 47.7551 159.03 47.059 158.286 46.0673Z" fill="#6F6767"/>
</svg>
