<svg width="181" height="54" viewBox="0 0 181 54" fill="none" xmlns="http://www.w3.org/2000/svg">
<path fill-rule="evenodd" clip-rule="evenodd" d="M30.1623 15.1493C27.7269 15.1493 25.7527 17.1235 25.7527 19.5589C25.7527 21.9942 27.7269 23.9684 30.1623 23.9684C32.5976 23.9684 34.5718 21.9942 34.5718 19.5589C34.5718 17.1235 32.5976 15.1493 30.1623 15.1493ZM21.5406 23.7278C26.1307 23.7278 29.8517 27.4488 29.8517 32.039V38.8508H25.7177V32.039C25.7177 31.5501 25.6338 31.0809 25.4795 30.6449L19.4072 36.7172L16.4841 33.794L22.3399 27.9382C22.0812 27.8881 21.8139 27.8618 21.5406 27.8618H14.7288V23.7278H21.5406ZM38.8868 23.7278C34.2967 23.7278 30.5756 27.4488 30.5756 32.039V38.8508H34.7096V32.039C34.7096 31.656 34.7611 31.2851 34.8576 30.9328L41.2096 37.2848L44.1328 34.3617L37.7809 28.0098C38.1331 27.9133 38.5039 27.8618 38.8868 27.8618H45.6986V23.7278H38.8868Z" fill="#6F6767"/>
<path d="M52.313 39.0889V15.3274H59.0425L66.2577 35.6895H66.778V15.3274H70.6285V39.0889H64.0377L56.649 18.6921H56.1634V39.0889H52.313Z" fill="#6F6767"/>
<path d="M86.054 35.967L87.0252 35.8629L87.0946 38.6727C84.4583 39.2046 82.1226 39.4705 80.0875 39.4705C77.5206 39.4705 75.6706 38.7652 74.5374 37.3545C73.4274 35.9438 72.8724 33.6891 72.8724 30.5903C72.8724 24.4389 75.3815 21.3632 80.3997 21.3632C85.2561 21.3632 87.6843 24.011 87.6843 29.3068L87.4415 32.0125H76.6881C76.7112 33.4463 77.0234 34.4985 77.6247 35.1691C78.2259 35.8398 79.3475 36.1751 80.9894 36.1751C82.6314 36.1751 84.3195 36.1057 86.054 35.967ZM83.9726 29.0987C83.9726 27.3874 83.6951 26.1964 83.1401 25.5258C82.6082 24.832 81.6948 24.4851 80.3997 24.4851C79.1047 24.4851 78.1566 24.8436 77.5553 25.5605C76.9772 26.2773 76.6765 27.4567 76.6534 29.0987H83.9726Z" fill="#6F6767"/>
<path d="M98.9168 24.9707H94.1298V32.6022C94.1298 34.0129 94.2339 34.9494 94.442 35.412C94.6502 35.8745 95.1821 36.1057 96.0377 36.1057L98.8822 36.0017L99.0556 39.0195C97.5062 39.3202 96.3268 39.4705 95.5174 39.4705C93.5517 39.4705 92.1989 39.0195 91.4588 38.1176C90.7419 37.2157 90.3835 35.516 90.3835 33.0185V24.9707H88.1634V21.7447H90.3835V16.7149H94.1298V21.7447H98.9168V24.9707Z" fill="#6F6767"/>
<path d="M98.9307 21.7447H102.642L105.383 35.8629H106.076L109.372 22.0916H113.257L116.552 35.8629H117.246L119.952 21.7447H123.698L120.021 39.0889H114.02L111.314 27.1908L108.609 39.0889H102.608L98.9307 21.7447Z" fill="#6F6767"/>
<path d="M126.112 23.6179C127.314 22.1147 129.303 21.3632 132.078 21.3632C134.853 21.3632 136.83 22.1147 138.01 23.6179C139.212 25.1211 139.814 27.3758 139.814 30.3821C139.814 33.3885 139.236 35.6548 138.079 37.1811C136.923 38.7074 134.923 39.4705 132.078 39.4705C129.234 39.4705 127.233 38.7074 126.077 37.1811C124.921 35.6548 124.343 33.3885 124.343 30.3821C124.343 27.3758 124.932 25.1211 126.112 23.6179ZM128.956 34.8916C129.488 35.8167 130.529 36.2792 132.078 36.2792C133.628 36.2792 134.668 35.8167 135.2 34.8916C135.732 33.9666 135.998 32.4519 135.998 30.3474C135.998 28.243 135.709 26.7514 135.131 25.8726C134.576 24.9939 133.558 24.5545 132.078 24.5545C130.598 24.5545 129.569 24.9939 128.991 25.8726C128.436 26.7514 128.158 28.243 128.158 30.3474C128.158 32.4519 128.424 33.9666 128.956 34.8916Z" fill="#6F6767"/>
<path d="M141.835 39.0889V21.7447H145.581V23.826C147.547 22.5541 149.513 21.7332 151.478 21.3632V25.1442C149.49 25.5373 147.79 26.0461 146.379 26.6705L145.616 26.9827V39.0889H141.835Z" fill="#6F6767"/>
<path d="M156.416 39.0889H152.635V14.5295H156.416V28.7171L158.566 28.509L162.659 21.7447H166.891L161.896 29.8618L167.169 39.0889H162.902L158.67 31.7697L156.416 32.0125V39.0889Z" fill="#6F6767"/>
</svg>
