<svg width="163" height="64" viewBox="0 0 163 64" fill="none" xmlns="http://www.w3.org/2000/svg">
<path fill-rule="evenodd" clip-rule="evenodd" d="M23.147 25.0932C25.2589 22.2525 28.6408 20.4121 32.4526 20.4121C36.2867 20.4121 39.686 22.2742 41.7952 25.1434C41.7053 25.2357 41.6235 25.3314 41.5497 25.4269C41.1632 25.9273 40.8727 26.5718 40.6396 27.2263C40.1707 28.5426 39.8129 30.262 39.4818 31.872L39.452 32.0168C39.1217 33.6239 38.8144 35.1185 38.4431 36.228C38.2762 36.7266 38.1179 37.0787 37.9778 37.3045C37.8314 37.0771 37.6652 36.7204 37.4892 36.2148C37.0918 35.0734 36.758 33.5209 36.4038 31.8633L36.3922 31.809L36.3922 31.8089C36.0519 30.2167 35.6909 28.5273 35.2407 27.2341C35.0146 26.5845 34.7371 25.9465 34.3741 25.4508C34.018 24.9643 33.425 24.4152 32.5579 24.4152C31.6962 24.4152 31.1006 24.9583 30.7392 25.4394C30.3693 25.9318 30.0809 26.5673 29.8433 27.2172C29.3648 28.526 28.9736 30.2379 28.6096 31.8502L28.572 32.0168L28.572 32.0168C28.2115 33.6139 27.8745 35.1071 27.492 36.2188C27.3459 36.6433 27.2081 36.966 27.0833 37.1968C26.9614 36.9671 26.8271 36.6466 26.685 36.2254C26.318 35.1376 25.9965 33.6862 25.6512 32.1273L25.5908 31.8546C25.233 30.2413 24.8449 28.5262 24.3596 27.2133C24.1185 26.561 23.8236 25.9224 23.4419 25.4276C23.3556 25.3156 23.2574 25.2019 23.147 25.0932ZM21.8688 27.2745C21.9694 27.4731 22.0757 27.7192 22.1858 28.0169C22.6058 29.1532 22.9617 30.7039 23.3282 32.3563L23.3995 32.6783C23.7331 34.1861 24.0802 35.7545 24.489 36.9662C24.7064 37.6107 24.969 38.242 25.3067 38.7326C25.6261 39.1965 26.199 39.7957 27.0799 39.7957C27.9583 39.7957 28.5326 39.1995 28.8541 38.7375C29.1947 38.248 29.4616 37.6176 29.6834 36.9728C30.1087 35.737 30.4708 34.1318 30.8173 32.5956L30.8173 32.5955L30.8703 32.3607C31.2436 30.7072 31.603 29.1535 32.02 28.013C32.2132 27.4846 32.394 27.1164 32.5515 26.8881C32.7007 27.1145 32.8711 27.4767 33.0519 27.9961C33.4493 29.1375 33.7831 30.69 34.1373 32.3476L34.1489 32.4019C34.4892 33.9942 34.8502 35.6836 35.3004 36.9768C35.5265 37.6264 35.804 38.2644 36.167 38.7601C36.5232 39.2466 37.1161 39.7957 37.9832 39.7957C38.8547 39.7957 39.4455 39.2417 39.7975 38.7509C40.1548 38.2527 40.4236 37.6126 40.6409 36.9636C41.0579 35.7175 41.39 34.1005 41.706 32.5622L41.7519 32.3389C42.0924 30.6832 42.4193 29.1369 42.8228 28.0039C42.9106 27.7574 42.9964 27.5473 43.0789 27.3708C43.6975 28.7886 44.0406 30.3543 44.0406 32.0001C44.0406 38.4 38.8525 43.5881 32.4526 43.5881C26.0527 43.5881 20.8646 38.4 20.8646 32.0001C20.8646 30.317 21.2234 28.7176 21.8688 27.2745ZM32.4526 18.0945C24.7727 18.0945 18.547 24.3202 18.547 32.0001C18.547 39.6799 24.7727 45.9057 32.4526 45.9057C40.1325 45.9057 46.3582 39.6799 46.3582 32.0001C46.3582 24.3202 40.1325 18.0945 32.4526 18.0945ZM32.7175 26.6941C32.7175 26.6944 32.7148 26.6965 32.7093 26.6997C32.7147 26.6954 32.7175 26.6938 32.7175 26.6941ZM32.3972 26.6957C32.3918 26.6924 32.3891 26.6901 32.3891 26.6898C32.3891 26.6895 32.3918 26.6912 32.3972 26.6957ZM37.8146 37.5188C37.8093 37.5222 37.8068 37.5244 37.8068 37.5247C37.8068 37.5249 37.8075 37.5245 37.8088 37.5235C37.8101 37.5226 37.812 37.521 37.8146 37.5188ZM38.144 37.5152C38.1493 37.5185 38.152 37.5208 38.152 37.5211C38.152 37.5214 38.1493 37.5197 38.144 37.5152ZM26.8524 37.5371C26.8457 37.5418 26.8424 37.5449 26.8424 37.5453C26.8425 37.5456 26.8437 37.5448 26.8463 37.5426C26.8478 37.5413 26.8499 37.5395 26.8524 37.5371ZM27.3118 37.5393C27.3184 37.5441 27.3217 37.5473 27.3217 37.5476C27.3217 37.548 27.3184 37.5456 27.3118 37.5393Z" fill="#6F6767"/>
<path d="M54.0365 40.2325L50.6644 28.6978H53.6179L55.6178 37L57.9433 28.6978H61.2456L63.5711 37L65.5943 28.6978H68.5478L65.1525 40.2325H62.0595L59.5945 31.6048L57.1294 40.2325H54.0365Z" fill="#6F6767"/>
<path d="M72.8818 40.5115C71.8896 40.5115 71.0756 40.3565 70.44 40.0464C69.8043 39.7209 69.3315 39.2945 69.0214 38.7674C68.7113 38.2403 68.5563 37.6589 68.5563 37.0232C68.5563 35.9535 68.9749 35.0853 69.8121 34.4186C70.6493 33.752 71.9051 33.4187 73.5795 33.4187H76.5096V33.1396C76.5096 32.3489 76.2848 31.7675 75.8352 31.3955C75.3856 31.0234 74.8275 30.8373 74.1608 30.8373C73.5562 30.8373 73.0291 30.9846 72.5795 31.2792C72.1299 31.5582 71.8508 31.9768 71.7423 32.535H68.8354C68.9129 31.6978 69.192 30.9691 69.6726 30.349C70.1687 29.7288 70.8043 29.256 71.5795 28.9304C72.3547 28.5893 73.2229 28.4188 74.1841 28.4188C75.8275 28.4188 77.122 28.8296 78.0677 29.6513C79.0135 30.473 79.4863 31.6358 79.4863 33.1396V40.2325H76.9515L76.6724 38.3721C76.3313 38.9922 75.8507 39.5038 75.2306 39.9069C74.6259 40.31 73.843 40.5115 72.8818 40.5115ZM73.5562 38.186C74.4089 38.186 75.0678 37.9069 75.5329 37.3488C76.0135 36.7907 76.3158 36.1008 76.4399 35.2791H73.905C73.1144 35.2791 72.5485 35.4264 72.2074 35.7209C71.8663 36 71.6958 36.3488 71.6958 36.7674C71.6958 37.217 71.8663 37.5659 72.2074 37.8139C72.5485 38.062 72.9981 38.186 73.5562 38.186Z" fill="#6F6767"/>
<path d="M84.1723 40.2325L79.9398 28.6978H83.056L85.9862 37.4186L88.9163 28.6978H92.0326L87.7768 40.2325H84.1723Z" fill="#6F6767"/>
<path d="M98.0166 40.5115C96.8539 40.5115 95.8229 40.2635 94.9237 39.7674C94.0245 39.2713 93.319 38.5736 92.8074 37.6744C92.2958 36.7752 92.04 35.7364 92.04 34.5582C92.04 33.3644 92.2881 32.3024 92.7842 31.3722C93.2958 30.442 93.9935 29.7211 94.8772 29.2095C95.7764 28.6823 96.8306 28.4188 98.0399 28.4188C99.1716 28.4188 100.172 28.6668 101.04 29.1629C101.908 29.6591 102.582 30.3412 103.063 31.2094C103.559 32.0621 103.807 33.0156 103.807 34.0698C103.807 34.2404 103.799 34.4186 103.784 34.6047C103.784 34.7907 103.776 34.9845 103.761 35.1861H94.9934C95.0554 36.0853 95.3655 36.7907 95.9236 37.3023C96.4973 37.8139 97.1872 38.0697 97.9934 38.0697C98.598 38.0697 99.1019 37.938 99.505 37.6744C99.9236 37.3953 100.234 37.0387 100.435 36.6046H103.458C103.241 37.3333 102.877 38 102.365 38.6046C101.869 39.1937 101.249 39.6588 100.505 39.9999C99.7763 40.341 98.9468 40.5115 98.0166 40.5115ZM98.0399 30.8373C97.3112 30.8373 96.6678 31.0466 96.1097 31.4652C95.5516 31.8683 95.195 32.4885 95.0399 33.3256H100.784C100.738 32.566 100.458 31.9613 99.9468 31.5117C99.4352 31.0621 98.7996 30.8373 98.0399 30.8373Z" fill="#6F6767"/>
<path d="M105.381 40.2325V23.4886H108.357V40.2325H105.381Z" fill="#6F6767"/>
<path d="M116.073 40.5115C114.91 40.5115 113.879 40.2635 112.98 39.7674C112.081 39.2713 111.376 38.5736 110.864 37.6744C110.352 36.7752 110.096 35.7364 110.096 34.5582C110.096 33.3644 110.345 32.3024 110.841 31.3722C111.352 30.442 112.05 29.7211 112.934 29.2095C113.833 28.6823 114.887 28.4188 116.096 28.4188C117.228 28.4188 118.228 28.6668 119.096 29.1629C119.965 29.6591 120.639 30.3412 121.12 31.2094C121.616 32.0621 121.864 33.0156 121.864 34.0698C121.864 34.2404 121.856 34.4186 121.84 34.6047C121.84 34.7907 121.833 34.9845 121.817 35.1861H113.05C113.112 36.0853 113.422 36.7907 113.98 37.3023C114.554 37.8139 115.244 38.0697 116.05 38.0697C116.654 38.0697 117.158 37.938 117.561 37.6744C117.98 37.3953 118.29 37.0387 118.492 36.6046H121.515C121.298 37.3333 120.933 38 120.422 38.6046C119.926 39.1937 119.306 39.6588 118.561 39.9999C117.833 40.341 117.003 40.5115 116.073 40.5115ZM116.096 30.8373C115.368 30.8373 114.724 31.0466 114.166 31.4652C113.608 31.8683 113.251 32.4885 113.096 33.3256H118.84C118.794 32.566 118.515 31.9613 118.003 31.5117C117.492 31.0621 116.856 30.8373 116.096 30.8373Z" fill="#6F6767"/>
<path d="M128.204 40.5115C127.181 40.5115 126.282 40.3488 125.507 40.0232C124.732 39.6821 124.111 39.217 123.646 38.6279C123.181 38.0387 122.902 37.3566 122.809 36.5814H125.809C125.902 37.031 126.15 37.4186 126.553 37.7442C126.972 38.0542 127.507 38.2093 128.158 38.2093C128.809 38.2093 129.282 38.0775 129.576 37.8139C129.887 37.5504 130.042 37.248 130.042 36.907C130.042 36.4109 129.825 36.0775 129.39 35.907C128.956 35.7209 128.352 35.5427 127.576 35.3721C127.08 35.2636 126.577 35.1318 126.065 34.9768C125.553 34.8217 125.08 34.6279 124.646 34.3954C124.228 34.1473 123.887 33.8373 123.623 33.4652C123.36 33.0776 123.228 32.6047 123.228 32.0466C123.228 31.0234 123.631 30.1629 124.437 29.4653C125.259 28.7676 126.406 28.4188 127.879 28.4188C129.243 28.4188 130.328 28.7366 131.135 29.3722C131.956 30.0079 132.445 30.8838 132.6 32.0001H129.786C129.615 31.1474 128.972 30.7211 127.856 30.7211C127.297 30.7211 126.863 30.8296 126.553 31.0466C126.259 31.2637 126.111 31.535 126.111 31.8606C126.111 32.2016 126.336 32.473 126.786 32.6745C127.235 32.876 127.832 33.0621 128.576 33.2326C129.383 33.4187 130.119 33.628 130.786 33.8605C131.468 34.0776 132.011 34.4109 132.414 34.8605C132.817 35.2946 133.018 35.9225 133.018 36.7442C133.034 37.4573 132.848 38.1007 132.46 38.6744C132.073 39.248 131.514 39.6976 130.786 40.0232C130.057 40.3488 129.197 40.5115 128.204 40.5115Z" fill="#6F6767"/>
<path d="M139.492 40.5115C138.469 40.5115 137.57 40.3488 136.795 40.0232C136.02 39.6821 135.399 39.217 134.934 38.6279C134.469 38.0387 134.19 37.3566 134.097 36.5814H137.097C137.19 37.031 137.438 37.4186 137.841 37.7442C138.26 38.0542 138.795 38.2093 139.446 38.2093C140.097 38.2093 140.57 38.0775 140.864 37.8139C141.174 37.5504 141.329 37.248 141.329 36.907C141.329 36.4109 141.112 36.0775 140.678 35.907C140.244 35.7209 139.64 35.5427 138.864 35.3721C138.368 35.2636 137.864 35.1318 137.353 34.9768C136.841 34.8217 136.368 34.6279 135.934 34.3954C135.516 34.1473 135.175 33.8373 134.911 33.4652C134.647 33.0776 134.516 32.6047 134.516 32.0466C134.516 31.0234 134.919 30.1629 135.725 29.4653C136.547 28.7676 137.694 28.4188 139.167 28.4188C140.531 28.4188 141.616 28.7366 142.422 29.3722C143.244 30.0079 143.733 30.8838 143.888 32.0001H141.074C140.903 31.1474 140.26 30.7211 139.143 30.7211C138.585 30.7211 138.151 30.8296 137.841 31.0466C137.547 31.2637 137.399 31.535 137.399 31.8606C137.399 32.2016 137.624 32.473 138.074 32.6745C138.523 32.876 139.12 33.0621 139.864 33.2326C140.671 33.4187 141.407 33.628 142.074 33.8605C142.756 34.0776 143.298 34.4109 143.702 34.8605C144.105 35.2946 144.306 35.9225 144.306 36.7442C144.322 37.4573 144.136 38.1007 143.748 38.6744C143.36 39.248 142.802 39.6976 142.074 40.0232C141.345 40.3488 140.485 40.5115 139.492 40.5115Z" fill="#6F6767"/>
</svg>
